<?xml version="1.0" standalone="no"?>
<!DOCTYPE svg PUBLIC "-//W3C//DTD SVG 20010904//EN"
 "http://www.w3.org/TR/2001/REC-SVG-20010904/DTD/svg10.dtd">
<svg version="1.0" xmlns="http://www.w3.org/2000/svg"
 width="695.000000pt" height="695.000000pt" viewBox="0 0 695.000000 695.000000"
 preserveAspectRatio="xMidYMid meet">
<metadata>
Created by potrace 1.14, written by Peter Selinger 2001-2017
</metadata>
<g transform="translate(0.000000,695.000000) scale(0.100000,-0.100000)"
fill="#000000" stroke="none">
<path d="M1135 5686 c-50 -52 -203 -211 -341 -353 -138 -142 -301 -310 -362
-373 l-112 -115 0 -675 0 -675 147 -144 c82 -79 377 -369 656 -645 280 -276
568 -559 640 -629 229 -223 1436 -1418 1582 -1566 77 -77 143 -140 146 -139 4
2 241 235 526 518 445 441 1321 1306 1729 1706 67 66 300 295 518 509 l397
390 -3 670 -3 671 -195 195 c-107 107 -255 258 -329 335 -74 76 -194 200 -266
274 l-131 136 -665 2 -664 2 -454 -450 c-250 -248 -457 -450 -460 -450 -3 1
-211 203 -461 450 l-455 449 -675 1 -676 0 -89 -94z m1219 -1047 c143 -140
454 -447 692 -682 238 -236 434 -429 437 -430 9 -4 159 143 1366 1330 l226
223 120 -120 c66 -65 268 -265 448 -443 l329 -324 -309 -306 c-169 -168 -374
-370 -454 -449 -81 -78 -395 -388 -699 -688 -304 -300 -592 -583 -640 -630
-48 -47 -151 -147 -228 -222 -77 -76 -145 -138 -151 -138 -6 0 -95 82 -197
182 -102 100 -229 225 -282 276 -53 52 -365 359 -692 682 -327 323 -649 640
-715 705 -283 277 -605 599 -605 605 0 6 417 421 759 754 l132 129 102 -100
c56 -55 219 -214 361 -354z"/>
</g>
</svg>
